HIERARCHY
ROOT Pelvis
{
	OFFSET 0.32 0 0
	CHANNELS 6 Xposition Yposition Zposition Zrotation Xrotation Yrotation
	JOINT SpineShoulder
	{
		OFFSET 0 6.740009 0
		CHANNELS 3 Zrotation Xrotation Yrotation
		JOINT Neck
		{
			OFFSET 0 2.640004 0
			CHANNELS 3 Zrotation Xrotation Yrotation
			End Site
			{
				OFFSET 0 4.719998 0
			}
		}
		JOINT ShoulderLeft
		{
			OFFSET 3.340001 0.6799955 0
			CHANNELS 3 Zrotation Xrotation Yrotation
			JOINT ElbowLeft
			{
				OFFSET 5.307964 0 0
				CHANNELS 3 Zrotation Xrotation Yrotation
				End Site
				{
					OFFSET 4.786495 0 0
				}
			}
		}
		JOINT ShoulderRight
		{
			OFFSET -3.300001 0.6799955 0
			CHANNELS 3 Zrotation Xrotation Yrotation
			JOINT ElbowRight
			{
				OFFSET -5.307964 0 0
				CHANNELS 3 Zrotation Xrotation Yrotation
				End Site
				{
					OFFSET -4.786495 0 0
				}
			}
		}
	}
	JOINT HipLeft
	{
		OFFSET 2.560001 -1.599997 0
		CHANNELS 3 Zrotation Xrotation Yrotation
		JOINT KneeLeft
		{
			OFFSET 0 -8.508625 0
			CHANNELS 3 Zrotation Xrotation Yrotation
			End Site
			{
				OFFSET 0 -7.880188 0
			}
		}
	}
	JOINT HipRight
	{
		OFFSET -2.560001 -1.599997 0
		CHANNELS 3 Zrotation Xrotation Yrotation
		JOINT KneeRight
		{
			OFFSET 0 -8.508625 0
			CHANNELS 3 Zrotation Xrotation Yrotation
			End Site
			{
				OFFSET 0 -7.880188 0
			}
		}
	}
}
MOTION
Frames: 35
Frame Time: 0.03333334
0 0 0 -359.498 10.98536 66.41122 -358.3007 18.60772 0.279165 -3.207133 357.6464 359.5635 -338.7557 86.50217 273.1337 -108.8246 300.4637 223.3356 -115.8165 319.8448 172.9082 -201.6268 43.43979 215.1845 -355.1528 346.4518 1.96593 -355.7758 28.8396 354.7972 -352.937 7.174862 359.1477 -357.8268 8.758608 358.6989
0 0 0 -1.160125 11.37532 72.25473 -357.0366 16.03181 357.8117 -2.665677 356.8422 359.7976 -237.2396 84.6078 170.3334 -117.0044 302.228 212.5688 -114.2355 324.984 175.0858 -204.2841 39.49058 214.871 -350.2163 344.2194 3.215733 -358.2933 28.6238 354.4277 -347.5702 6.035267 359.2796 -3.912725 7.387709 358.3838
0 0 0 -359.4831 11.25441 68.99579 -358.3393 16.92135 359.1695 -2.358602 357.7683 359.7729 -205.4599 85.82664 137.5338 -119.4832 299.862 211.5952 -114.2093 322.0001 173.3188 -202.8448 42.47314 213.0867 -352.7663 348.6964 2.008957 -357.209 26.33472 355.0387 -350.1939 9.082855 358.6585 -2.268298 5.830786 358.8047
0 0 0 -359.4232 11.31323 70.98236 -358.5768 15.98345 358.5673 -1.88757 358.23 359.84 -245.4785 79.54106 174.9038 -137 302.6206 194.1089 -113.3185 323.7835 173.9148 -202.1825 39.31589 215.9867 -352.6442 349.1788 1.940939 -354.8775 29.74697 353.5298 -352.1619 8.083998 358.8798 -1.475509 5.744394 358.9784
0 0 0 -359.2656 11.09511 70.86123 -358.4765 17.3244 359.2168 -2.847143 358.4992 359.6186 -221.5596 82.78583 153.9501 -124.3338 301.9385 201.6089 -115.7908 324.9167 170.3725 -201.457 39.32893 213.0989 -347.4851 353.2618 1.711165 -0.8067237 26.58311 354.7362 -351.1172 6.731266 359.0647 -2.129601 7.094826 358.7203
0 0 0 -0.5567858 11.21323 71.67985 -358.7808 14.78952 359.7478 -2.855622 0.07166592 359.5237 -261.1202 75.71524 192.7735 -139.2207 306.3521 194.0999 -115.4487 325.0699 172.3892 -198.2145 37.3433 211.7038 -350.4496 352.6337 1.640879 -352.5048 29.23277 352.5504 -352.6389 3.871747 359.6552 -358.6072 8.174174 358.704
0 0 0 -1.352947 10.42259 74.58738 -358.3696 15.60758 1.845459 -2.878194 357.9271 359.686 -257.2549 66.12711 188.4182 -147.9959 315.6851 178.0189 -115.9124 333.9046 169.9657 -198.3521 30.84895 208.2609 -349.1864 351.4401 1.935992 -354.4144 30.64919 352.6313 -350.6488 0.6292301 0.2315633 -359.436 13.12408 357.7337
0 0 0 -2.689098 10.75382 78.44812 -358.2021 14.82388 0.6618142 -2.437979 358.7959 359.69 -258.5338 60.58194 190.053 -148.8638 319.8326 175.7897 -115.0633 338.1554 171.9561 -198.3961 25.93486 212.2946 -353.9824 350.1378 1.638638 -345.0912 30.90355 350.725 -354.6238 358.4279 0.4389711 -358.4409 11.02979 358.393
0 0 0 -4.276451 10.64308 86.49767 -356.8193 15.31879 359.7563 -2.176775 357.3276 359.8876 -256.0006 50.02895 190.1304 -151.2561 334.886 168.2901 -114.2619 351.6724 172.8715 -197.1904 14.23501 212.1718 -349.3273 346.2612 3.011657 -354.1323 30.96364 352.2365 -349.078 354.4823 1.511773 -3.984308 15.2791 357.7044
0 0 0 -4.865138 10.13325 87.5897 -356.6273 12.73913 359.9451 -1.876232 358.7037 359.8373 -256.6291 46.4673 191.8782 -149.6913 335.1343 171.0209 -114.1444 352.6752 171.4471 -202.0081 16.30116 208.225 -346.7715 347.7939 3.11495 -4.651724 21.51135 356.8714 -346.247 350.2439 2.686032 -6.435455 21.85897 356.9998
0 0 0 -4.69776 10.55992 87.25885 -356.4786 10.49628 0.82495 -3.129181 359.2651 359.6499 -255.619 45.02765 190.1472 -149.6832 335.9894 171.7836 -112.4704 354.459 169.8704 -208.6471 20.21217 206.1076 -348.897 354.965 1.463193 -359.4065 17.04671 356.6725 -349.3185 354.2775 1.551225 -358.4429 11.33945 357.7326
0 0 0 -5.705505 10.43897 92.56778 -356.3557 8.769362 359.209 -1.516036 0.5002322 359.7561 -254.7049 37.65394 190.0192 -149.724 342.1882 169.0334 -112.1977 0.2275616 168.8095 -210.212 17.34536 204.3495 -351.173 348.4215 2.393999 -359.4701 28.03907 355.0633 -349.9505 351.9262 1.939444 -2.710301 10.16084 358.4771
0 0 0 -5.092475 10.08521 95.4852 -357.5891 10.41049 0.4932694 -0.2558151 1.073301 359.8456 -252.1065 30.27829 190.6281 -147.888 350.0557 161.9184 -112.9893 6.367148 169.1122 -210.449 11.7078 202.8667 -348.643 350.6144 2.226069 -358.3923 23.13669 355.1431 -349.8406 352.9068 1.66273 -1.245775 8.898401 358.5215
0 0 0 -5.567395 9.565815 99.39237 -356.3763 10.07328 0.397745 -1.389468 359.9508 359.8373 -252.2185 22.23487 190.8942 -149.3083 358.2739 161.776 -110.2199 15.29759 170.4992 -211.527 6.188907 198.9122 -346.6574 348.0107 2.979433 -1.556018 23.9314 355.5208 -348.3914 345.8128 3.156458 -3.511572 20.93664 357.0293
0 0 0 -4.885136 9.876892 106.045 -356.9017 9.629793 358.9003 -0.6874071 0.818787 359.8347 -249.9577 11.34028 190.3219 -147.4153 7.934913 156.7363 -109.0895 24.46493 168.9971 -211.0154 359.8699 194.2217 -350.0264 351.568 1.724105 -3.029044 16.66995 357.594 -353.1538 348.34 1.9357 -2.276887 17.86868 357.8255
0 0 0 -4.4558 9.816482 102.4035 -356.5191 10.91296 0.9960356 -1.353199 1.149364 359.7167 -251.1879 15.09637 192.6082 -147.5703 5.396891 159.0621 -110.3293 21.82616 169.4099 -210.9263 0.9836332 198.9603 -348.3283 351.4231 1.917814 -1.420555 17.0666 356.9807 -351.296 347.2602 2.336591 -2.081109 19.0322 357.3888
0 0 0 -4.321563 10.14424 116.3949 -355.8479 8.479343 0.4388784 -0.07861838 2.478459 359.6635 -247.8128 346.8427 197.081 -141.5528 32.74372 147.6198 -107.8779 48.60413 173.0938 -206.3956 333.403 185.0329 -355.9984 348.4608 1.503853 -352.4149 15.88433 356.0618 -355.6039 350.1631 1.309988 -358.9754 14.25113 357.8767
0 0 0 -4.514083 9.883219 121.5061 -355.9641 5.630603 0.9306048 -0.660889 5.363178 359.3055 -244.3479 337.694 197.7796 -132.0454 41.18174 135.3879 -102.6502 60.04654 167.4039 -213.4431 332.2597 173.5354 -351.7275 344.1742 2.58248 -355.5129 17.39677 355.8066 -352.7786 343.1469 2.610923 -357.8051 22.76824 355.7513
0 0 0 -4.060161 10.85698 124.8526 -356.2012 6.518848 359.5687 -1.170657 2.29854 359.6837 -244.0237 331.9953 194.0899 -125.5757 43.512 123.9029 -105.0198 64.34885 171.6582 -213.3169 325.6337 174.7052 -357.4794 345.5381 1.69557 -353.1304 16.65172 356.0056 -355.7378 346.6082 1.728501 -358.2359 23.72694 356.2474
0 0 0 -4.181619 11.65989 126.8755 -356.4709 7.555785 358.8238 -1.518319 2.060008 359.6971 -243.2888 329.5154 194.4318 -126.2214 45.67223 127.1606 -104.619 67.00739 171.023 -213.443 322.4627 174.9499 -356.6654 347.8064 1.529612 -358.7392 12.78917 358.016 -358.1339 348.8614 1.287715 -355.443 21.83707 355.9739
0 0 0 -4.171996 11.03951 129.4852 -358.0978 6.841647 0.7510364 -0.9962308 2.589432 359.7008 -239.507 319.4137 195.4292 -112.3097 46.85027 108.0454 -97.1311 74.40838 162.8454 -218.8995 320.7814 166.994 -357.803 345.5504 1.637442 -357.6051 15.61481 357.5179 -359.2772 346.3098 1.415467 -355.1608 23.84509 355.8604
0 0 0 -2.178252 11.33475 134.2615 -356.2918 11.29515 0.09672793 -359.6209 2.299933 359.7387 -236.372 306.9879 196.7132 -95.37941 51.73802 84.59428 -56.51925 83.40159 123.3893 -221.7676 307.4005 162.3009 -359.7744 351.0799 0.7632675 -356.8362 13.21211 358.0926 -2.28323 352.3221 0.6240705 -354.42 19.27164 357.1711
0 0 0 -2.266256 10.8135 133.0787 -357.0847 10.50149 2.280677 -359.7395 3.204451 359.6498 -237.1347 303.0645 194.3537 -93.57256 57.32829 84.34924 -38.14931 82.22958 103.2114 -224.4407 310.752 156.6082 -359.9562 348.8701 0.9303504 -355.2276 13.5142 357.6396 -0.907371 351.3379 0.69689 -356.4561 18.83364 357.5972
0 0 0 -2.0066 11.21307 136.1394 -358.137 11.70851 2.514214 -358.4559 2.8023 359.7442 -233.4038 291.7319 198.032 -82.36436 56.55787 69.73258 -354.9408 81.18913 60.21646 -227.8086 309.8217 157.2047 -359.757 349.1596 0.8918792 -351.1972 15.37194 356.2294 -1.450206 352.1023 0.6253538 -357.042 14.51649 358.2828
0 0 0 -2.294658 11.55132 139.6259 -359.6033 10.24764 2.037363 -356.9082 3.5799 359.6661 -225.633 288.4265 203.6167 -74.24976 52.58411 60.59576 -332.614 77.11688 37.78193 -233.8335 310.0816 145.4291 -358.6703 346.0443 1.223171 -353.6099 19.63759 355.9847 -3.686938 349.1122 0.7705066 -355.9928 18.10085 357.8999
0 0 0 -3.008651 11.66071 142.2805 -359.2031 12.46312 2.560252 -358.8436 0.4138484 0.003260731 -205.4059 279.3981 224.0461 -66.04787 48.98388 48.76101 -320.6521 69.08675 26.69385 -243.2667 300.2422 134.268 -0.6024641 347.3452 1.038933 -353.531 18.2957 356.4738 -5.875196 351.2702 0.6603789 -354.9697 15.74705 358.1341
0 0 0 -0.9347956 12.01595 147.1889 -358.2932 13.92498 2.609366 -0.4486805 357.6507 0.1636224 -98.13706 281.0833 331.7263 -46.56754 47.04136 29.18642 -306.9318 59.17134 15.3829 -264.2108 294.9998 112.2425 -358.5883 348.1294 0.7977349 -357.9167 17.10441 358.0379 -3.12317 354.7676 0.4554396 -358.4929 13.8375 359.1316
0 0 0 -1.702125 12.20511 152.4955 -359.1848 15.17119 2.118814 -359.8422 356.8526 0.2340227 -83.18108 293.4296 346.1925 -41.39417 36.89163 18.22977 -301.1808 51.91497 10.14131 -286.27 293.4488 91.35126 -357.6277 347.5249 0.8452115 -359.3304 16.00227 358.4767 -3.605056 356.9042 0.4137219 -0.5440884 11.25801 359.7717
0 0 0 -359.7036 11.5031 150.6265 -358.4749 13.9736 3.070879 -357.6736 359.0393 0.1470454 -84.17715 291.2223 345.3142 -33.02486 38.12259 12.02084 -302.2096 51.52469 11.9826 -286.0801 293.2262 88.43661 -357.0809 346.9157 0.7021493 -355.1252 19.37718 356.8455 -359.8384 356.4126 0.1602503 -0.38343 13.7364 359.4313
0 0 0 -0.4889605 10.77227 156.3565 -358.7258 14.86472 2.732275 -357.8966 357.6887 0.2577496 -81.9257 303.3182 346.4261 -30.08762 27.2259 5.734635 -301.7908 42.29018 9.598248 -306.2091 298.1711 65.46755 -354.9459 344.3288 0.939018 -357.2723 20.67321 357.2046 -359.4449 355.8925 0.1449727 -1.533277 12.86471 359.7596
0 0 0 -2.208123 11.98145 155.6943 -0.07583621 14.22334 3.757414 -359.2965 356.6092 0.2542131 -80.33208 303.5639 348.6065 -29.76283 28.02794 6.766313 -304.3765 39.34732 10.98587 -294.1028 300.9175 74.78065 -358.0889 344.6159 1.047274 -355.1662 22.37909 356.3619 -3.20778 357.3747 0.3676096 -358.9206 11.523 359.402
0 0 0 -2.257293 11.76933 157.0612 -0.1317236 13.55011 3.095498 -357.7014 358.088 0.2145418 -80.66078 303.3772 347.1899 -30.09456 25.02478 5.467093 -303.6872 35.20564 12.19043 -299.7281 301.6905 66.63401 -357.8259 344.2143 1.055104 -359.0842 19.32781 358.2079 -4.18099 357.4077 0.4213561 -358.4464 11.86677 359.4182
0 0 0 -2.892351 12.08049 156.8454 -359.5519 13.96522 3.362815 -0.1776806 356.7227 0.2201249 -78.78906 303.8509 348.8174 -30.0386 24.42111 5.312747 -303.5485 35.79941 11.27536 -313.1157 300.9704 54.24601 -0.9073002 343.271 1.054717 -353.143 20.29768 356.1519 -3.637131 355.8597 0.4556626 -359.2168 13.65341 359.3694
0 0 0 -2.067811 11.71161 157.6997 -359.1359 14.05392 3.973237 -0.08489542 356.3717 0.2308348 -76.05153 307.4854 350.1761 -30.53864 18.12016 1.235817 -303.0599 31.92027 11.12496 -312.5118 300.6319 57.51779 -358.4437 345.4599 0.887691 -354.6663 20.22682 356.6006 -2.622981 355.9916 0.3632177 -358.8542 11.97669 359.3562
0 0 0 -2.212904 11.47748 158.5672 -358.8934 13.42163 3.910214 -0.7851829 356.8298 0.1669551 -76.10035 307.9869 349.4585 -30.52224 17.03042 1.833231 -302.841 28.65255 11.5248 -315.9512 302.7245 51.96545 -358.7913 344.2713 0.9427819 -354.6247 24.88344 356.1409 -2.174895 353.1919 0.4342752 -358.6895 13.4886 359.1872
